# xmcd
#
# Track frame offsets:
#	150
#	14560
#	27657
#	45388
#	63326
#	80395
#	94373
#	110406
#	124755
#	141176
#	158487
#
# Disc length: 2308 seconds
#
# Revision: 1
# Processed by: cddbd v1.5.2PL0 Copyright (c) Steve Scherf et al.
# Submitted via: audiograbber 1.83.01
#
DISCID=8d09020b
DTITLE=Songs of the Fall - Songs of the Fall
DYEAR=2016
DGENRE=Alt-Country
TTITLE0=Beneath the Willow
TTITLE1=Talk About Suffering
TTITLE2=Old Man
TTITLE3=Wind Blow My Love Back
TTITLE4=Cutting In
TTITLE5=Jacob's Ladder
TTITLE6=Waves
TTITLE7=Fallen
TTITLE8=Gypsy Love
TTITLE9=Hold On
TTITLE10=Walk A Mile
EXTD=
EXTT0=
EXTT1=
EXTT2=
EXTT3=
EXTT4=
EXTT5=
EXTT6=
EXTT7=
EXTT8=
EXTT9=
EXTT10=
PLAYORDER=
